# Blender v2.90.1 OBJ File: 'PSX style tree.blend'
# www.blender.org
mtllib bird.mtl
o Wings.001_Cube.003
v 2.086179 4.884792 0.806530
v 2.085600 4.889549 0.802232
v 2.084079 4.895794 0.891260
v 2.082812 4.909565 0.887675
v 2.172120 4.869743 0.743296
v 2.171265 4.876143 0.735874
v 2.176637 4.891036 0.878104
v 2.174904 4.909872 0.873200
v 2.277514 4.924212 0.902550
v 2.279725 4.900174 0.908808
v 2.198920 4.860884 0.683023
v 2.197798 4.872710 0.679213
v 2.430959 4.924098 0.847900
v 2.433170 4.900061 0.854159
v 2.355309 4.860696 0.692059
v 2.354343 4.872787 0.692072
v 2.587615 4.851672 0.667215
v 2.588307 4.843899 0.668739
v 2.569093 4.831550 0.631557
v 2.568694 4.836440 0.631389
v 2.084696 4.894741 0.846270
v 2.083766 4.903730 0.841694
v 2.173946 4.884367 0.808222
v 2.172642 4.896609 0.801177
v 2.238098 4.885977 0.792537
v 2.236418 4.903461 0.786426
v 2.393244 4.883671 0.770949
v 2.391643 4.901288 0.766783
v 2.578663 4.837452 0.652317
v 2.578110 4.843671 0.651127
vt 0.286546 0.304793
vt 0.252893 0.291430
vt 0.251168 0.291393
vt 0.287109 0.305552
vt 0.278977 0.256553
vt 0.276058 0.256120
vt 0.356920 0.280621
vt 0.426943 0.260731
vt 0.497439 0.310008
vt 0.437280 0.303695
vt 0.433488 0.301936
vt 0.325717 0.317454
vt 0.327660 0.318493
vt 0.354617 0.279519
vt 0.589713 0.248876
vt 0.592346 0.250212
vt 0.497794 0.309736
vt 0.370175 0.212038
vt 0.367293 0.210851
vt 0.428080 0.260693
vt 0.555267 0.211184
vt 0.708845 0.170280
vt 0.701290 0.161099
vt 0.522554 0.172029
vt 0.554384 0.210182
vt 0.520928 0.170256
vt 0.719847 0.180544
vt 0.719355 0.179918
vt 0.708932 0.169737
vt 0.701395 0.160394
vn -0.7114 -0.6989 0.0740
vn -0.5052 -0.4744 0.7209
vn -0.5910 0.6437 0.4862
vn -0.7315 0.6609 -0.1677
vn -0.0629 -0.6565 0.7517
vn -0.0907 0.8673 0.4895
vn -0.1077 0.9689 -0.2228
vn -0.0895 0.9700 -0.2262
vn -0.4221 0.3937 -0.8166
vn -0.7320 0.4145 -0.5407
vn -0.2977 -0.9475 -0.1166
vn -0.6415 -0.7650 -0.0570
vn -0.7701 0.2793 -0.5736
vn 0.0202 -0.9876 0.1560
vn -0.0354 0.5947 -0.8032
vn -0.1048 -0.8472 -0.5208
vn -0.3695 -0.7665 -0.5252
vn 0.0443 -0.4859 0.8729
vn -0.0329 0.7949 0.6058
vn 0.0423 -0.9839 0.1736
vn -0.0195 -0.9732 0.2289
vn 0.6306 -0.7650 -0.1312
vn 0.8228 -0.5432 0.1672
vn 0.4631 -0.4605 0.7573
vn 0.0184 0.9541 -0.2988
vn 0.4140 0.8151 0.4051
vn 0.3458 -0.7073 -0.6166
vn 0.3321 0.4151 -0.8470
vn 0.6051 0.5950 -0.5290
vn 0.7719 0.6298 -0.0868
g Wings.001_Cube.003_Material.002
usemtl Material.002
s 1
f 21/1/1 3/2/2 4/3/3 22/4/4
f 3/2/2 7/5/5 8/6/6 4/3/3
f 24/7/7 26/8/8 12/9/9 6/10/10
f 5/11/11 1/12/12 2/13/13 6/10/10
f 21/1/1 1/12/12 5/11/11 23/14/14
f 24/7/7 6/10/10 2/13/13 22/4/4
f 12/9/9 16/15/15 15/16/16 11/17/17
f 7/5/5 10/18/18 9/19/19 8/6/6
f 6/10/10 12/9/9 11/17/17 5/11/11
f 23/14/14 25/20/20 10/18/18 7/5/5
f 27/21/21 29/22/22 18/23/23 14/24/24
f 25/20/20 27/21/21 14/24/24 10/18/18
f 26/8/8 28/25/25 16/15/15 12/9/9
f 10/18/18 14/24/24 13/26/26 9/19/19
f 29/22/22 19/27/27 20/28/28 30/29/29
f 28/25/25 30/29/29 20/28/28 16/15/15
f 14/24/24 18/23/23 17/30/30 13/26/26
f 16/15/15 20/28/28 19/27/27 15/16/16
f 13/26/26 17/30/30 30/29/29 28/25/25
f 18/23/23 29/22/22 30/29/29 17/30/30
f 9/19/19 13/26/26 28/25/25 26/8/8
f 11/17/17 15/16/16 27/21/21 25/20/20
f 15/16/16 19/27/27 29/22/22 27/21/21
f 5/11/11 11/17/17 25/20/20 23/14/14
f 8/6/6 24/7/7 22/4/4 4/3/3
f 3/2/2 21/1/1 23/14/14 7/5/5
f 8/6/6 9/19/19 26/8/8 24/7/7
f 1/12/12 21/1/1 22/4/4 2/13/13
o bird_Cube.001
v 1.957267 4.590851 0.609047
v 1.982239 4.717703 0.516348
v 1.938036 4.916067 0.779742
v 1.953674 4.869671 0.678312
v 1.983263 4.726574 0.839631
v 2.029605 4.720494 0.622284
v 2.019524 4.806334 0.705662
v 1.910345 4.713186 0.390491
v 1.912162 4.918015 0.712584
v 1.916849 4.626406 0.389798
v 2.022930 4.807261 0.622983
v 1.909084 4.799336 0.519598
v 1.898044 4.884899 0.628220
v 1.952044 4.635198 0.834385
v 1.935718 4.923589 0.890642
v 1.966116 4.775128 0.980388
v 1.939597 4.732302 0.985034
v 1.912575 4.939509 0.896974
v 1.903930 4.921389 1.005088
v 1.885398 4.914673 1.027754
v 1.889167 4.919197 1.099278
v 1.901762 5.069320 0.922975
v 1.917203 5.054791 1.018298
v 1.899149 5.051692 1.046910
v 1.950240 4.983389 1.015220
v 1.906407 4.971099 1.089829
v 1.920053 4.995462 0.885615
v 1.875618 4.959505 1.129350
v 1.877129 4.900699 1.199289
v 1.896680 4.695974 0.339370
v 1.884309 4.624829 0.136336
v 1.793559 4.578207 0.615332
v 1.873593 4.577435 0.550514
v 1.742440 4.699183 0.525553
v 1.853910 4.841331 0.568701
v 1.857359 4.709094 0.392525
v 1.775651 4.903525 0.785976
v 1.759627 4.854684 0.685761
v 1.764711 4.709694 0.848021
v 1.703421 4.695302 0.634806
v 1.706545 4.782161 0.717677
v 1.804374 4.705002 0.394559
v 1.852345 4.892070 0.630028
v 1.855574 4.926302 0.782992
v 1.795726 4.909021 0.717054
v 1.811219 4.618248 0.393854
v 1.696746 4.782069 0.635505
v 1.802247 4.791085 0.523700
v 1.808283 4.877967 0.631666
v 1.809079 4.624156 0.839873
v 1.881198 4.610271 0.814676
v 1.785233 4.911966 0.896419
v 1.859624 4.928850 0.893620
v 1.784888 4.761131 0.987346
v 1.817935 4.722906 0.989705
v 1.879913 4.713181 0.988225
v 1.806076 4.931283 0.901063
v 1.859099 4.935820 0.893959
v 1.825611 4.915340 1.008095
v 1.846627 4.911678 1.029243
v 1.866440 4.909646 1.032533
v 1.847672 4.915992 1.100871
v 1.849974 5.058272 0.902625
v 1.798808 5.061369 0.926927
v 1.793087 5.045205 1.023062
v 1.813530 5.045079 1.050197
v 1.855619 5.059779 1.052703
v 1.850971 5.085609 0.983593
v 1.866388 4.959110 1.130696
v 1.771251 4.969565 1.022091
v 1.822008 4.964581 1.093069
v 1.853665 4.994109 0.869677
v 1.789263 4.985361 0.890636
v 1.857132 4.958077 1.130059
v 1.875349 4.892886 1.230879
v 1.869990 4.900147 1.199563
v 1.816580 4.689787 0.342445
v 1.862779 4.612952 0.340264
v 1.851195 4.628274 0.069357
v 1.824203 4.620186 0.138643
v 1.808879 4.641873 0.770502
v 1.807766 4.492342 0.778728
v 1.801376 4.622832 0.706527
v 1.805908 4.487628 0.762885
v 1.871778 4.624866 0.767976
v 1.823855 4.488171 0.778083
v 1.866345 4.605985 0.703922
v 1.821997 4.483456 0.762240
v 1.934567 4.651580 0.765676
v 1.959218 4.504040 0.772914
v 1.940003 4.633539 0.701205
v 1.960564 4.499572 0.756948
v 1.875012 4.625116 0.767852
v 1.943957 4.497447 0.773472
v 1.878378 4.606915 0.703460
v 1.945303 4.492979 0.757507
vt 0.363975 0.252141
vt 0.526980 0.263574
vt 0.463696 0.351250
vt 0.447826 0.270190
vt 0.453502 0.273902
vt 0.488763 0.255622
vt 0.274645 0.300033
vt 0.349668 0.286121
vt 0.367930 0.298650
vt 0.306799 0.321870
vt 0.223957 0.273139
vt 0.223808 0.279209
vt 0.170068 0.363773
vt 0.165303 0.360711
vt 0.350787 0.204943
vt 0.571168 0.168309
vt 0.533631 0.172428
vt 0.341034 0.212197
vt 0.607960 0.218192
vt 0.753807 0.134545
vt 0.779038 0.173115
vt 0.705381 0.200999
vt 0.608252 0.208294
vt 0.545592 0.262953
vt 0.603716 0.208139
vt 0.772624 0.123275
vt 0.351804 0.377679
vt 0.347006 0.377305
vt 0.349708 0.380620
vt 0.350274 0.384632
vt 0.123945 0.435492
vt 0.046930 0.420278
vt 0.070901 0.419574
vt 0.124622 0.434964
vt 0.224018 0.296940
vt 0.195951 0.366901
vt 0.186197 0.466584
vt 0.150028 0.436414
vt 0.124507 0.435551
vt 0.184832 0.470445
vt 0.184634 0.406875
vt 0.139299 0.415051
vt 0.181502 0.406407
vt 0.205977 0.461551
vt 0.198909 0.429385
vt 0.295516 0.428714
vt 0.278051 0.462482
vt 0.279379 0.407169
vt 0.283083 0.408735
vt 0.310487 0.431622
vt 0.199750 0.406638
vt 0.150509 0.433725
vt 0.186712 0.463752
vt 0.294174 0.460036
vt 0.236749 0.476424
vt 0.619567 0.185132
vt 0.903131 0.081365
vt 0.810362 0.149728
vt 0.931461 0.084864
vt 0.399069 0.283611
vt 0.448584 0.296472
vt 0.599684 0.279616
vt 0.511744 0.302544
vt 0.639357 0.250584
vt 0.738959 0.141732
vt 0.789407 0.138559
vt 0.460240 0.313805
vt 0.348842 0.255926
vt 0.439513 0.346954
vt 0.462312 0.269913
vt 0.465958 0.279095
vt 0.340253 0.343214
vt 0.405091 0.320634
vt 0.170632 0.360530
vt 0.227781 0.278919
vt 0.333473 0.218918
vt 0.501027 0.184602
vt 0.515712 0.228942
vt 0.718887 0.155162
vt 0.633424 0.217602
vt 0.747618 0.188150
vt 0.629450 0.222454
vt 0.544143 0.255440
vt 0.334783 0.366236
vt 0.336911 0.376354
vt 0.070867 0.419793
vt 0.195783 0.360413
vt 0.230542 0.294305
vt 0.184465 0.408040
vt 0.139127 0.416323
vt 0.205326 0.465649
vt 0.277688 0.465832
vt 0.294781 0.432751
vt 0.198026 0.435063
vt 0.278653 0.410327
vt 0.199383 0.408989
vt 0.654133 0.207883
vt 0.782691 0.163508
vt 0.883632 0.085257
vt 0.426586 0.299382
vt 0.472743 0.303707
vt 0.612214 0.271904
vt 0.544455 0.308115
vt 0.536303 0.255428
vt 0.769766 0.162008
vt 0.508947 0.329904
vt 0.417480 0.205075
vt 0.364942 0.194568
vt 0.409237 0.128553
vt 0.423721 0.130948
vt 0.393815 0.184087
vt 0.416741 0.126756
vt 0.442787 0.193698
vt 0.431003 0.129095
vt 0.464336 0.201371
vt 0.481692 0.139008
vt 0.470414 0.137124
vt 0.422480 0.192147
vt 0.465431 0.133980
vt 0.398814 0.184003
vt 0.476890 0.135872
vt 0.443994 0.193638
vn 0.9673 -0.1350 0.2146
vn 0.9385 0.3317 0.0961
vn 0.6089 0.7928 0.0277
vn -0.0859 0.8896 -0.4486
vn 0.2482 0.8395 -0.4834
vn -0.0845 0.7953 -0.6003
vn 0.7868 0.6172 -0.0075
vn -0.0799 0.9932 -0.0844
vn -0.0835 0.7610 -0.6434
vn 0.0772 -0.6062 0.7915
vn 0.5370 -0.4503 0.7134
vn 0.5862 -0.5270 0.6153
vn 0.0836 -0.7662 0.6372
vn 0.0850 -0.9485 0.3052
vn 0.0732 -0.9931 -0.0916
vn 0.6161 -0.7874 -0.0198
vn 0.5823 -0.7448 0.3259
vn 0.9741 -0.2023 -0.1013
vn 0.7993 -0.5344 -0.2748
vn 0.5756 0.6210 -0.5320
vn 0.8881 0.1398 -0.4378
vn -0.0859 0.8924 -0.4429
vn 0.3246 0.7616 -0.5608
vn 0.0696 -0.9836 -0.1665
vn -0.0367 -0.0212 -0.9991
vn 0.6869 0.0171 -0.7266
vn -0.0236 0.6729 0.7394
vn 0.0141 0.2922 0.9562
vn 0.9721 -0.1382 0.1894
vn 0.7389 0.3932 0.5472
vn 0.8698 0.0150 0.4931
vn 0.8857 -0.2149 0.4115
vn -0.5578 0.5879 0.5859
vn -0.7603 -0.0535 0.6473
vn -0.7466 0.2784 0.6042
vn -0.0398 0.8076 0.5884
vn 0.8824 -0.4622 0.0878
vn 0.7075 0.6683 0.2297
vn 0.9831 -0.0691 0.1697
vn 0.6938 0.0427 -0.7189
vn 0.5021 0.7620 -0.4090
vn -0.0451 0.0893 -0.9950
vn 0.8066 0.0675 0.5872
vn 0.5040 0.6699 0.5451
vn -0.0813 0.7006 -0.7089
vn -0.0739 0.9944 0.0759
vn 0.7662 0.5505 -0.3315
vn 0.7510 -0.2286 -0.6194
vn 0.0746 -0.9954 -0.0595
vn 0.3187 0.9226 -0.2173
vn 0.6019 0.7327 -0.3175
vn 0.7979 0.4725 -0.3742
vn -0.0846 0.9562 -0.2802
vn -0.9160 -0.2805 0.2869
vn -0.7193 0.6902 0.0787
vn -0.9681 0.1845 0.1693
vn -0.4101 0.7887 -0.4581
vn -0.8704 0.4892 0.0561
vn -0.4498 -0.6070 0.6551
vn -0.4057 -0.5231 0.7495
vn -0.4347 -0.8233 0.3650
vn -0.4878 -0.8727 0.0226
vn -0.9364 -0.3498 -0.0280
vn -0.7265 -0.6523 -0.2162
vn -0.9298 -0.0006 -0.3681
vn -0.7028 0.5223 -0.4829
vn -0.4793 0.6996 -0.5300
vn -0.7347 -0.0927 -0.6720
vn -0.9222 -0.2845 0.2621
vn -0.8083 -0.3458 0.4765
vn -0.8217 -0.1156 0.5580
vn -0.7918 -0.5915 0.1521
vn -0.7821 0.5533 0.2868
vn -0.6427 0.6736 -0.3651
vn -0.7449 -0.0685 -0.6637
vn -0.9450 -0.2180 0.2437
vn -0.8645 0.4246 -0.2689
vn -0.7521 -0.3447 -0.5618
vn -0.4720 0.8615 -0.1870
vn -0.7296 0.6299 -0.2664
vn -0.8871 0.3424 -0.3095
vn -0.4367 0.7554 0.4885
vn -0.5774 0.4397 -0.6879
vn -0.6950 -0.6513 -0.3047
vn -0.5883 -0.3815 0.7130
vn 0.6413 0.1600 -0.7504
vn 0.3311 -0.8797 -0.3413
vn 0.7496 0.4870 0.4482
vn 0.4433 -0.6051 0.6614
vn 0.3517 0.8163 0.4582
vn 0.6924 -0.2826 0.6638
vn 0.7613 -0.5388 -0.3606
vn 0.4490 0.5190 -0.7273
vn -0.2174 -0.9220 -0.3203
vn -0.7135 0.0553 -0.6984
vn -0.2935 -0.6620 0.6897
vn -0.7791 0.3690 0.5069
g bird_Cube.001_Material.002
usemtl Material.002
s 1
f 35/31/31 37/32/32 33/33/33
f 73/34/34 43/35/35 65/36/36
f 45/37/37 33/38/33 74/39/38 83/40/39
f 86/41/40 47/42/41 50/43/42 91/44/43
f 81/45/44 63/46/45 31/47/46 44/48/47
f 31/47/46 36/49/48 35/31/31 44/48/47
f 40/50/49 38/51/50 32/52/51
f 66/53/52 65/36/36 42/54/53 38/55/50
f 63/46/45 108/56/54 40/50/49
f 40/50/49 31/47/46 63/46/45
f 32/52/51 36/49/48 31/47/46
f 45/57/37 83/58/39 88/59/55 48/60/56
f 31/47/46 40/50/49 32/52/51
f 99/61/57 105/62/58 59/63/59 58/64/60
f 47/42/41 46/65/61 49/66/62 50/43/42
f 96/67/63 101/68/64 104/69/65 99/61/57 97/70/66
f 44/48/47 35/31/31 46/65/61 47/42/41
f 50/71/42 51/72/67 91/73/43
f 53/74/68 55/75/69 57/76/70 52/77/71
f 48/78/56 88/79/55 102/80/72 57/76/70
f 50/71/42 49/81/62 55/75/69 56/82/73
f 55/75/69 49/81/62 48/78/56 57/76/70
f 54/83/74 56/82/73 55/75/69 53/74/68
f 56/82/73 51/72/67 50/71/42
f 52/77/71 93/84/75 98/85/76
f 98/85/76 97/70/66 54/83/74 53/74/68
f 51/72/67 58/64/60 59/63/59
f 53/74/68 52/77/71 98/85/76
f 105/62/58 91/73/43 51/72/67 59/63/59
f 58/64/60 51/72/67 56/82/73
f 52/77/71 57/76/70 102/80/72 93/84/75
f 66/53/52 38/55/50 60/86/77
f 40/50/49 108/56/54 61/87/78 60/88/77
f 38/51/50 40/50/49 60/88/77
f 108/56/54 109/89/79 61/87/78
f 81/45/44 44/48/47 47/42/41 86/41/40
f 33/38/33 39/90/80 74/39/38
f 37/32/32 35/31/31 36/49/48
f 43/35/35 39/90/80 34/91/81
f 46/65/61 35/31/31 33/33/33 45/57/37
f 38/55/50 42/54/53 32/92/51
f 46/65/61 45/57/37 48/60/56 49/66/62
f 43/35/35 34/91/81 42/54/53 65/36/36
f 34/91/81 41/93/82 32/92/51 42/54/53
f 39/90/80 43/35/35 73/34/34 74/39/38
f 36/49/48 32/52/51 41/94/82 37/32/32
f 60/86/77 61/95/78 109/96/83 66/53/52
f 41/93/82 34/91/81 39/90/80 33/38/33 37/97/32
f 69/98/84 67/99/85 71/100/86
f 73/34/34 65/36/36 79/101/87
f 82/102/88 83/40/39 74/39/38 67/103/85
f 86/41/40 91/44/43 90/104/89 85/105/90
f 81/45/44 80/106/91 62/107/92 63/46/45
f 62/107/92 80/106/91 69/98/84 70/108/93
f 76/109/94 64/110/95 72/111/96
f 66/53/52 72/112/96 78/113/97 65/36/36
f 63/46/45 76/109/94 108/56/54
f 76/109/94 63/46/45 62/107/92
f 64/110/95 62/107/92 70/108/93
f 82/114/88 87/115/98 88/59/55 83/58/39
f 62/107/92 64/110/95 76/109/94
f 99/61/57 104/69/65 106/116/99 105/62/58
f 85/105/90 90/104/89 89/117/100 84/118/101
f 80/106/91 85/105/90 84/118/101 69/98/84
f 90/119/89 91/73/43 92/120/102
f 95/121/103 94/122/104 103/123/105 100/124/106
f 87/125/98 103/123/105 102/80/72 88/79/55
f 90/119/89 101/68/64 100/124/106 89/126/100
f 100/124/106 103/123/105 87/125/98 89/126/100
f 96/67/63 95/121/103 100/124/106 101/68/64
f 101/68/64 90/119/89 92/120/102
f 94/122/104 98/85/76 93/84/75
f 98/85/76 95/121/103 96/67/63 97/70/66
f 92/120/102 106/116/99 104/69/65
f 95/121/103 98/85/76 94/122/104
f 105/62/58 106/116/99 92/120/102 91/73/43
f 104/69/65 101/68/64 92/120/102
f 94/122/104 93/84/75 102/80/72 103/123/105
f 66/53/52 107/127/107 72/112/96
f 76/109/94 107/128/107 110/129/108 108/56/54
f 72/111/96 107/128/107 76/109/94
f 108/56/54 110/129/108 109/89/79
f 81/45/44 86/41/40 85/105/90 80/106/91
f 67/103/85 74/39/38 75/130/109
f 71/100/86 70/108/93 69/98/84
f 79/101/87 68/131/110 75/130/109
f 84/118/101 82/114/88 67/99/85 69/98/84
f 72/112/96 64/132/95 78/113/97
f 84/118/101 89/117/100 87/115/98 82/114/88
f 79/101/87 65/36/36 78/113/97 68/131/110
f 68/131/110 78/113/97 64/132/95 77/133/111
f 75/130/109 74/39/38 73/34/34 79/101/87
f 70/108/93 71/100/86 77/134/111 64/110/95
f 107/127/107 66/53/52 109/96/83 110/135/108
f 77/133/111 71/136/86 67/103/85 75/130/109 68/131/110
f 54/83/74 97/70/66 99/61/57 58/64/60 56/82/73
f 111/137/112 113/138/113 114/139/114 112/140/115
f 113/138/113 117/141/116 118/142/117 114/139/114
f 117/141/116 115/143/118 116/144/119 118/142/117
f 115/143/118 111/137/112 112/140/115 116/144/119
f 113/138/113 111/137/112 115/143/118 117/141/116
f 118/142/117 116/144/119 112/140/115 114/139/114
f 119/145/120 120/146/121 122/147/122 121/148/123
f 121/148/123 122/147/122 126/149/124 125/150/125
f 125/150/125 126/149/124 124/151/126 123/152/127
f 123/152/127 124/151/126 120/146/121 119/145/120
f 121/148/123 125/150/125 123/152/127 119/145/120
f 126/149/124 122/147/122 120/146/121 124/151/126
o Wings.002_Cube.004
v 1.679471 4.853380 0.822143
v 1.678985 4.858144 0.817842
v 1.686311 4.865073 0.906531
v 1.685175 4.878854 0.902940
v 1.592288 4.824960 0.765555
v 1.591583 4.831371 0.758128
v 1.594847 4.846102 0.900439
v 1.593292 4.864952 0.895528
v 1.492236 4.863562 0.932697
v 1.494220 4.839507 0.938964
v 1.562648 4.811742 0.707450
v 1.561649 4.823578 0.703635
v 1.336910 4.839601 0.889901
v 1.338894 4.815546 0.896168
v 1.409286 4.787632 0.728376
v 1.408385 4.799727 0.728387
v 1.179901 4.742949 0.721257
v 1.180527 4.735170 0.722784
v 1.198517 4.725695 0.684173
v 1.198147 4.730587 0.684004
v 1.682436 4.863673 0.861713
v 1.681625 4.872672 0.857132
v 1.593195 4.839514 0.830517
v 1.592066 4.851769 0.823465
v 1.528547 4.831176 0.819777
v 1.527056 4.848674 0.813658
v 1.374401 4.804982 0.810063
v 1.372960 4.822611 0.805890
v 1.189766 4.730183 0.705637
v 1.189265 4.736406 0.704445
vt 0.286546 0.304793
vt 0.287109 0.305552
vt 0.251168 0.291393
vt 0.252893 0.291430
vt 0.276058 0.256120
vt 0.278977 0.256553
vt 0.356920 0.280621
vt 0.437280 0.303695
vt 0.497439 0.310008
vt 0.426943 0.260731
vt 0.433488 0.301936
vt 0.327660 0.318493
vt 0.325717 0.317454
vt 0.354617 0.279519
vt 0.497794 0.309736
vt 0.592346 0.250212
vt 0.589713 0.248876
vt 0.367293 0.210851
vt 0.370175 0.212038
vt 0.428080 0.260693
vt 0.555267 0.211184
vt 0.522554 0.172029
vt 0.701290 0.161099
vt 0.708845 0.170280
vt 0.554384 0.210182
vt 0.520928 0.170256
vt 0.708932 0.169737
vt 0.719355 0.179918
vt 0.719847 0.180544
vt 0.701395 0.160394
vn 0.8136 -0.5812 0.0154
vn 0.6066 0.7642 -0.2191
vn 0.5206 0.7295 0.4436
vn 0.6254 -0.3871 0.6775
vn -0.0063 0.8738 0.4863
vn 0.2199 -0.6347 0.7408
vn -0.0595 0.9726 -0.2246
vn 0.6165 0.5187 -0.5924
vn 0.2932 0.4490 -0.8441
vn -0.0778 0.9709 -0.2266
vn 0.4297 -0.8913 -0.1445
vn 0.6722 0.3907 -0.6289
vn 0.7450 -0.6579 -0.1102
vn 0.1434 -0.9780 0.1513
vn 0.4415 -0.7039 -0.5564
vn 0.1935 -0.8242 -0.5322
vn -0.1175 0.5883 -0.8000
vn -0.0433 0.7941 0.6062
vn 0.0974 -0.4818 0.8708
vn 0.1224 -0.9777 0.1705
vn 0.1859 -0.9574 0.2210
vn -0.3279 -0.5216 0.7877
vn -0.7146 -0.6620 0.2263
vn -0.5140 -0.8534 -0.0872
vn -0.1872 0.9383 -0.2909
vn -0.5020 0.7444 0.4403
vn -0.7277 0.4920 -0.4778
vn -0.4554 0.3543 -0.8168
vn -0.2792 -0.7556 -0.5926
vn -0.8636 0.5035 -0.0240
g Wings.002_Cube.004_Material.002
usemtl Material.002
s 1
f 147/153/128 148/154/129 130/155/130 129/156/131
f 129/156/131 130/155/130 134/157/132 133/158/133
f 150/159/134 132/160/135 138/161/136 152/162/137
f 131/163/138 132/160/135 128/164/139 127/165/140
f 147/153/128 149/166/141 131/163/138 127/165/140
f 150/159/134 148/154/129 128/164/139 132/160/135
f 138/161/136 137/167/142 141/168/143 142/169/144
f 133/158/133 134/157/132 135/170/145 136/171/146
f 132/160/135 131/163/138 137/167/142 138/161/136
f 149/166/141 133/158/133 136/171/146 151/172/147
f 153/173/148 140/174/149 144/175/150 155/176/151
f 151/172/147 136/171/146 140/174/149 153/173/148
f 152/162/137 138/161/136 142/169/144 154/177/152
f 136/171/146 135/170/145 139/178/153 140/174/149
f 155/176/151 156/179/154 146/180/155 145/181/156
f 154/177/152 142/169/144 146/180/155 156/179/154
f 140/174/149 139/178/153 143/182/157 144/175/150
f 142/169/144 141/168/143 145/181/156 146/180/155
f 139/178/153 154/177/152 156/179/154 143/182/157
f 144/175/150 143/182/157 156/179/154 155/176/151
f 135/170/145 152/162/137 154/177/152 139/178/153
f 137/167/142 151/172/147 153/173/148 141/168/143
f 141/168/143 153/173/148 155/176/151 145/181/156
f 131/163/138 149/166/141 151/172/147 137/167/142
f 134/157/132 130/155/130 148/154/129 150/159/134
f 129/156/131 133/158/133 149/166/141 147/153/128
f 134/157/132 150/159/134 152/162/137 135/170/145
f 127/165/140 128/164/139 148/154/129 147/153/128
